<svg id="bold" enable-background="new 0 0 24 24" height="512" viewBox="0 0 24 24" width="512" xmlns="http://www.w3.org/2000/svg"><path d="m18.25 3h-.25v1.25c0 1.517-1.233 2.75-2.75 2.75h-6.5c-1.517 0-2.75-1.233-2.75-2.75v-1.25h-.25c-1.517 0-2.75 1.233-2.75 2.75v15.5c0 1.517 1.233 2.75 2.75 2.75h12.5c1.517 0 2.75-1.233 2.75-2.75v-15.5c0-1.517-1.233-2.75-2.75-2.75zm-12.25 6.75c0-.414.336-.75.75-.75h5.5c.414 0 .75.336.75.75v1c0 .414-.336.75-.75.75s-.75-.336-.75-.75v-.25h-1.25v4.5h.25c.414 0 .75.336.75.75s-.336.75-.75.75h-2c-.414 0-.75-.336-.75-.75s.336-.75.75-.75h.25v-4.5h-1.25v.25c0 .414-.336.75-.75.75s-.75-.336-.75-.75zm11.25 12.25h-10.5c-.414 0-.75-.336-.75-.75s.336-.75.75-.75h10.5c.414 0 .75.336.75.75s-.336.75-.75.75zm0-2.5h-10.5c-.414 0-.75-.336-.75-.75s.336-.75.75-.75h10.5c.414 0 .75.336.75.75s-.336.75-.75.75zm0-3h-2.5c-.414 0-.75-.336-.75-.75s.336-.75.75-.75h2.5c.414 0 .75.336.75.75s-.336.75-.75.75zm0-3h-2.5c-.414 0-.75-.336-.75-.75s.336-.75.75-.75h2.5c.414 0 .75.336.75.75s-.336.75-.75.75zm0-3h-2.5c-.414 0-.75-.336-.75-.75s.336-.75.75-.75h2.5c.414 0 .75.336.75.75s-.336.75-.75.75z"/><path d="m15.25 6h-6.5c-.965 0-1.75-.785-1.75-1.75v-1.5c0-.414.336-.75.75-.75h1.604c.328-1.153 1.389-2 2.646-2s2.318.847 2.646 2h1.604c.414 0 .75.336.75.75v1.5c0 .965-.785 1.75-1.75 1.75z"/></svg>